<svg version="1" xmlns="http://www.w3.org/2000/svg" width="2186.667" height="2186.667" viewBox="0 0 1640.000000 1640.000000"><path d="M659.9 64.7C653.1 73.4 641 88.8 633 99c-8 10.2-17.6 22.4-21.4 27.2l-6.7 8.8-13 43.2c-7.1 23.8-14.7 49.1-16.8 56.3-2.2 7.1-7.6 25.4-12.1 40.5-4.5 15.1-12.5 41.7-17.7 59-5.3 17.3-11.9 39.6-14.8 49.5-2.9 9.9-11.7 39.4-19.5 65.5-7.8 26.1-16.8 56.2-20 66.8-3.1 10.6-5.9 19.4-6.1 19.6-.2.3-7.2 0-15.4-.6-20.4-1.4-34.8-.5-55 3.3-14.3 2.7-19.4 3.3-32.2 3.3-14.2.1-15.3 0-18.2-2.2-3.7-2.7-3.6-2.7-3.8 0-.2 2.1 9.3 22.6 12.1 26.2 1.3 1.6 7.8 2.8 42.8 7.7 22.7 3.2 42 5.8 42.7 5.9.8 0-1 2.2-4.1 5-18.7 16.6-25.3 46.8-14.5 65.8 2.1 3.8 2.3 4.9 1.5 8.8-1.8 8.4 1.2 23.2 7.3 35.9l2.4 5-2.9 7.5c-1.5 4.1-3.4 10.9-4.2 15.1-.7 4.2-3.5 13.6-6.1 21-4.3 11.9-5.8 14.7-13.1 24.5-4.5 6.2-8.2 12.1-8.2 13.2 0 2.6.1 2.6 23.9 7.6l19.4 4.1 1.9 7c2.5 9.3 4.2 12.9 9.4 19.6 6.5 8.1 12.3 12.3 24.4 17.2 6.6 2.7 8.8 3.1 17.5 3.1 9.3.1 10.5-.1 16.3-3l6.3-3.1 3.7 3.5c2 2 6.1 4.6 9.1 6 7.5 3.5 16.2 2.8 26.3-2 8-3.9 18-11 22.5-16.1 2.8-3.2 3-3.3 9.8-2.9 5.2.3 8.5-.1 12.9-1.6l5.9-2 5.6 4.3c3.1 2.4 7.6 5.1 10 6.1l4.4 1.7-.6 11.1c-3.3 58.1-3.4 131.4-.1 168.1.9 10.4 1.7 22.2 1.7 26.2s.4 7 .9 6.7c.4-.3.8-1.2.8-2 0-.9 2.2.6 5.2 3.5l5.2 5-9.7 33c-5.3 18.2-9.7 33.7-9.7 34.6 0 2.5 5.7 13.1 9.2 17.1 1.8 2.1 6 5.7 9.3 8.2l6 4.4.1 7.2c.2 8.2 2.4 14.3 8.3 22.1l3.8 5.1-3.4 3.9c-4.6 5.3-8.1 12.4-9.4 18.9-2.2 10.5 3.7 24.4 14.2 34l5.7 5.1-5.3 5.6c-6.2 6.8-9.2 12.6-10.5 20.2-1.7 10.8 3.2 24.8 12.4 35.3l4.3 4.9-3.7 5.5c-15.7 23.4-20.5 42.6-15.1 60 2.9 9.4 6.9 15.3 15.4 22.7l3.7 3.2-5 5.2c-6.7 7-10.2 14.2-10.4 21.7l-.1 5.8-13.6-.4c-46.8-1.5-88.1 20.3-110.2 58.3-7.7 13.2-15.6 34.5-17.6 47.5-2 12.8.8 17.2 15.4 24 14.1 6.6 30.1 9.3 64 11 65 3.1 105.5-1.3 138-15.2 8.9-3.8 21.7-12.3 27.4-18.2l4.5-4.6-2.4-6.7c-1.3-3.8-4.3-11.3-6.8-16.7l-4.4-10 4.1-8.5c5.4-11.4 6.9-20.3 5.3-30.8-.7-4.3-2.3-9.8-3.6-12.3-1.9-3.7-2.2-5-1.3-6.5.6-1.1 1.2-6.1 1.2-11 0-8.4-.2-9.4-3.4-15.2-3.6-6.6-11.7-15.5-16.3-17.9-1.6-.8-2.8-1.7-2.8-1.9 0-.3 1.6-2.8 3.6-5.5 2-2.8 4.8-8.3 6.2-12.3 2.3-6.3 2.6-8.8 2.6-20.7.1-11.2-.3-14.8-2.2-21.3-2.7-9.3-7.8-20.5-12.7-27.6l-3.6-5.2 2.1-3c3.4-4.7 6.2-13.8 6.8-21.6.4-6.2.1-8.1-2.2-13.9-2.9-7-6.9-13.6-10.5-16.8-1.1-1.1-2.1-2.2-2.1-2.6 0-.3 2-2 4.4-3.8 14.5-10.1 19.5-30.2 11.9-46.5l-3.2-6.8 5.3-5.4c7.4-7.3 10.7-14.7 11.4-25l.5-8.2 7.4-2.2c6.8-2 7.5-2.5 8.9-5.8 1.4-3.2 1.4-5.3-.1-19.7-.9-8.9-1.8-16.7-2.1-17.5-.3-1 .4-1.2 2.8-.8 1.8.3 10.3 1.3 18.9 2.3l15.6 1.7.7 7.5c.3 4.1.6 14.9.6 23.9v16.4l2.7 2.5c2.8 2.6 21.6 12.4 23.7 12.4.7 0 1.8 2.4 2.5 5.4 2.1 9.6 9.4 18.2 20.9 24.7 2.8 1.7 5.2 3.2 5.2 3.5 0 .2-1.6 3.6-3.5 7.5-7.4 14.6-8.6 30.1-3.1 41.2 4.4 9.1 15.4 17.9 26.7 21.6l3.6 1.2-4.8 9.5c-5.8 11.5-7.3 18.1-6.7 29.4.3 6.6 1 9.6 3 13.5 2.9 5.6 9.3 12.4 15.3 16.3 2.2 1.4 4.2 2.7 4.4 2.9.2.1-.6 1.4-1.7 3-9.7 13.8-13 34.5-7.3 46.5 2.4 4.9 7.4 10.7 13 15l3.4 2.6-3.2 4.6c-8.2 11.9-12.1 28.1-9.2 38.2.8 3 .5 3.5-5.1 9-16.5 16.2-31.9 47.1-35.7 71.4-2 12.8.8 17.2 15.4 24 14.1 6.6 30.1 9.3 64 11 65 3.1 105.5-1.3 138-15.2 8.9-3.8 21.7-12.3 27.5-18.2l4.4-4.6-1.8-5.2c-2.9-8.2-10-24.5-14.6-33.2-17.2-32.7-40.7-51.8-74.5-60.3l-10.1-2.6-1.8-6.9c-2.3-8.8-6.7-15.1-14.3-20.8-3.4-2.5-6.2-4.9-6.2-5.3-.1-.5.8-2.2 2-3.8 6.1-8.6 8.6-26.6 5.4-38.4-2.8-10.3-10.4-19.4-20.5-24.5-2.5-1.2-4.6-2.3-4.7-2.5-.2-.1 1-2.6 2.6-5.6 4.9-9.1 6.4-15.8 5.9-27.3-.5-13.1-3.4-20-11.9-28.1-5.2-5-14.4-10.5-17.6-10.5-.7 0 .5-2.7 2.7-6.1 6.2-9.6 7.5-14.6 7.5-28.4 0-11.6-.1-12.3-3.3-18.8-2.3-4.7-5.1-8.2-9.2-11.8l-5.8-5.2 3.6-4.6c5.9-7.7 9.2-17.5 9.2-27.6v-6l7.8-5.3c8.4-5.6 14.6-11 17.8-15.6l2-2.8 7.5 3.7c26.3 13.3 67 25.1 101.9 29.5 18.4 2.4 34.9 5.2 38 6.4 1.1.4 1.9-.2 2.7-2.1 1.3-3.4 15-33.1 16.3-35.4 1.9-3.6 13.5-34.2 17.2-45.4 17.8-54.6 25.9-102.1 26.2-154.7l.1-24.7 4.2-2.6c6.5-4.2 15.5-13.5 18.6-19.3 11.2-20.9 9.7-53-3.4-72.2-9.8-14.4-26.5-25-39.5-25-2.9 0-3.3-.4-5.4-6.3-6.7-18.8-17.5-39.8-23.8-46.6-2.3-2.4-8.2-3-20.1-2-16.4 1.3-39.3 6.1-54 11.3-2.4.9-4.5 1.6-4.6 1.6-.2 0-1.3-2.1-2.5-4.8-5.5-11.8-14.9-22.5-24.5-27.8-1.7-1-2.1-2.5-2.6-12-.8-13.5-2.3-21.2-5.9-28.9-8-17.4-20.9-28.8-38-33.5-6.9-1.9-20.3-1.5-29.4.9-12.2 3.2-20.6 8.3-31 18.6-9.9 9.8-14.6 16.8-18.5 27.9-2.5 6.8-2.7 7.2-5.1 6.5-1.4-.4-4.2-.7-6.2-.8-3.7-.1-3.8-.2-3.8-4.1 0-2.2.9-11.8 2-21.3s2.6-27.3 3.5-39.7c.8-12.4 2-29.5 2.6-38l1.2-15.5 6.2-9c8.8-12.8 15.7-24.6 21.8-37.2l5.2-10.8.2 13.1c.3 16.1 3.4 36.6 7.5 48.9 3.7 11.4 10.7 25.9 14.8 30.8 3.3 3.9 9.7 7.8 12.7 7.6 1 0 1.3-.3.6-.5-2.7-1.1-5.2-7.1-5.8-13.9-.9-8.9.6-19.1 4.7-31.9l3.1-9.8 3.7 11.4c13.3 40.5 38.5 65.2 73.9 72.3 12.5 2.6 31.2 1.7 40.7-1.9 3.9-1.4 9.1-2.6 11.5-2.6 21.8-.1 52.7-20.8 68.5-46 12.2-19.4 18.5-39.6 18.4-59l-.1-4.5-2.1 3c-4.1 5.8-15.8 16.4-19 17.3-1.8.5-5.7 1.9-8.6 3.1-8.8 3.5-11.7 3-17.7-3.2-9.7-10-15.2-28.3-14.1-47.2 1.3-23.4 10.7-47.5 33-84.5 16.4-27 21.8-40.2 22-53.1.1-5.7.4-7.5 1.3-7.2.7.3 4.4-.4 8.2-1.6 3.8-1.2 7.5-2.1 8.3-2.1.7 0 2.4-1.2 3.7-2.5 1.3-1.4 2.7-2.5 3.2-2.5s.9-.7.9-1.6c0-1.2-.6-1.5-2.5-1-1.6.4-3.9-.1-6.3-1.3-5.2-2.7-15.9-14.1-22.1-23.5-6.3-9.8-18.1-33.7-25.1-51.1-12.7-31.8-23-48.3-42-67.5-19.8-19.9-33.7-27-54.5-27.8-6-.2-13.5.1-16.5.6-3 .6-5.6.9-5.8.7-.1-.1 1.5-3.8 3.6-8.1 5.1-10.2 6.5-13.7 8.8-20.6 1.9-6.2 1.2-8.8-1.5-4.8-3.1 4.8-7.7 8.2-17.6 13-17.9 8.8-34.6 13.1-71.5 18.5-55.5 8.1-70.5 11.2-100 20.5-28.7 9.1-39.1 14.5-56.4 29.4-8.7 7.5-20.3 21.3-23.6 28.1-4.8 9.7-7.3 25-5.1 30.8.8 2 .6 2.9-1.1 4.4-1.1 1-4.3 4.8-7 8.4-4.6 6.2-5.3 6.7-9.6 7.4-7.4 1-24.9 6.1-33.8 9.9-21.6 9.1-37 19.3-54.3 36-17.7 17.2-30.8 35.6-42.7 60.1-17.3 35.8-22.4 65.4-17.5 101.9 2 14.7 7.4 39.3 10.8 49.4 1.3 4 1.3 4.5-.7 7.7l-2.1 3.4-9.7-4.8c-5.3-2.6-13.3-6.1-17.7-7.6-4.4-1.6-8.4-3.2-9-3.5-.5-.4-2.7-1-4.7-1.4-2.1-.4-4-1.1-4.3-1.6-.3-.5 1.5-8 4-16.7 8-27.4 21-72.4 32.5-112.8 17.3-60.5 36-126 67-233.5l12.2-42.5-2.1-24c-5.4-58.1-6.8-72.2-7.5-73.3-.4-.7-1.3-1.2-2-1.2s-6.9 7.1-13.7 15.7zM512.5 473c-.3.5.1 1 .9 1 .9 0 1.5.5 1.4 1.1-.4 1.7 9.8 3.9 11.4 2.5.7-.7.7-.4-.1.7-1.2 1.5-1.1 2 .5 3.2 1.1.8 1.4 1.4.7 1.5-1.9 0-1.6 4 .2 4 1.2 0 1.3.4.5 1.9-1.4 2.7-1.3 3.1.7 3.1 1.3 0 1.4.3.6 1.1-.9.9-.7 1.6.6 2.8 1 1 1.1 1.2.1.6-1.3-.9-1.3-.8-.1.8.8 1 2 1.6 2.8 1.3.8-.3 1.1-.2.8.4-.3.5.5 1.5 1.8 2.2l2.4 1.3-5.9 20.5c-3.2 11.3-6.3 22.2-6.8 24.2-.6 2.1-1.8 3.9-2.9 4.3-2.4.7-7.7-1.6-12.6-5.5-4.5-3.7-13.1-8-15.9-8-1.2 0-1.6-.5-1.2-1.5.3-.8.1-1.5-.4-1.5-1.7 0-1.1-3.2 3.4-17.5 2.4-7.7 6.5-20.6 9-28.7 2.9-9.1 5.3-15.1 6.4-15.7 2.2-1.3 2.5-1.3 1.7-.1zm25 27.8c-.3.3-1.1 0-1.8-.7-.9-1-.8-1.1.6-.5 1 .3 1.5.9 1.2 1.2zm17.3 11.5c.8.6 2.4 3.2 3.7 5.8 1.4 2.6 3 4.9 3.7 5.2.8.4.7.6-.4.6-1.1.1-2.6-1.6-4-4.6-1.3-2.5-3.4-5.3-4.8-6.2l-2.5-1.5 2.7 3c1.5 1.6 3.6 5 4.7 7.6 1.8 4.3 2.5 4.9 6.6 5.9 2.8.7 4.5 1.7 4.5 2.6 0 1.1-.7 1.3-2.7.9-4.4-.9-5.9.8-1.9 2.2 3.3 1.2 3.3 1.3 2.5 5.5-.4 2.3-.8 4.5-.9 4.9 0 .5-3.6.8-8 .8-5.1 0-9.4.6-11.8 1.6-8.8 3.7-19.2 5.7-19.2 3.7 0-.4 3-11 6.6-23.5l6.7-22.7 6.6 3.6c3.6 1.9 7.2 4 7.9 4.6zm41 93.2l16.4 4 2.3 4.5c3.9 7.6 14.3 22.9 21.5 31.4 14.3 17.1 28.3 28.8 43.5 36.4 12.4 6.2 40.8 15.4 52.5 17 13.8 2 44.8-1.4 52.9-5.8 2.4-1.2 3.1-.3 2.4 3.1-.4 2.2-1.2 2.6-7.1 3.7-3.7.6-19.6 5.2-35.4 10.2l-28.8 9-4.2-4.7c-5.6-6.1-14.3-11.6-22.6-14.5-8.5-2.9-24.8-3-32.7-.3-7.7 2.7-16.5 7.3-21.1 11.1-3.7 3-4.6 3.3-6.9 2.4-4.4-1.7-14.6-1.2-21.3 1.1-14.5 4.9-24.8 16.8-30.8 35.4l-2.2 7-7.9.6c-4.3.3-9.1 1.1-10.7 1.8-1.6.6-3.2.8-3.6.4-.3-.4-2.6-3.4-5-6.6-2.4-3.2-6.2-7.5-8.5-9.5-4.1-3.7-4.2-3.8-3.9-9.7.2-3.3-.2-9.8-.7-14.5l-1.1-8.5 4.5-7.5c5.4-8.8 9.8-21.3 9.9-27.8l.1-4.7 6.7-3.2c8-3.9 20.3-11.8 24.6-15.9 5.1-4.8 6.1-7.3 6.9-17 .6-8.3.4-9.9-2-16.9-1.4-4.3-3.8-9.8-5.2-12.2-3.1-5.3-5-5.3 17.5.2zm306.3 465.2c1.3 1.6 1.2 1.7-.3.4-1-.7-1.8-1.5-1.8-1.7 0-.8.8-.3 2.1 1.3zM393.6 1147.1c-.3 1.7-.5 6.8-.4 11.3l.1 8.1.7-11c.8-11.5.7-13.7-.4-8.4z"/></svg>